<svg xmlns="http://www.w3.org/2000/svg" viewBox="0 0 640 700" role="img" aria-labelledby="title">
  <title id="title">Niti symbol</title>
  <g fill="#2B69EE">
    <path d="M140 162 C145 143 157 124 175 109 C193 93 217 78 245 64 L279 49 C300 40 326 39 348 43 C365 46 379 54 396 63 L540 143 C579 165 601 201 605 236 C610 272 591 301 562 323 C520 355 470 384 422 413 C369 445 316 472 265 497 L265 421 C265 400 277 383 297 374 L380 336 C396 329 405 316 407 302 C409 286 401 273 386 264 L249 181 C218 163 181 155 140 162Z"/>
    <path d="M137 188 C158 187 179 193 199 203 L340 284 C348 289 354 293 357 298 L253 344 C228 356 213 379 213 406 L213 558 C213 595 224 626 247 648 L118 576 C91 561 72 547 59 529 C47 512 41 496 41 480 L41 269 C41 240 58 215 83 202 C99 193 118 188 137 188Z"/>
    <path d="M606 316 L606 478 C606 512 586 540 556 561 L389 659 C362 674 332 671 308 657 C280 640 265 612 265 578 L265 510 C280 517 297 516 315 509 C345 498 382 478 412 462 L508 405 C555 377 587 348 606 316Z"/>
  </g>
</svg>
