<svg xmlns="http://www.w3.org/2000/svg" viewBox="0 0 570 260" role="img" aria-labelledby="title">
  <title id="title">Niti wordmark</title>
  <g fill="#0B1731">
    <path d="M55 22 C45 22 37 30 37 40 V220 C37 230 45 238 55 238 H60 C70 238 78 230 78 220 V88 L190 229 C195 235 202 238 210 238 H218 C227 238 235 230 235 221 V40 C235 30 227 22 217 22 H213 C203 22 195 30 195 40 V172 L83 31 C78 25 70 22 63 22Z"/>
    <circle cx="301" cy="39" r="23"/>
    <rect x="281" y="80" width="40" height="158" rx="16"/>
    <path d="M385 34 H393 C402 34 409 41 409 50 V80 H443 C452 80 458 87 458 96 V98 C458 107 451 113 442 113 H409 V184 C409 198 416 205 429 205 C435 205 441 204 446 203 C453 202 458 208 458 216 V224 C458 231 454 235 448 237 C440 239 431 240 422 240 C387 240 369 222 369 187 V113 H359 C350 113 344 106 344 98 V95 C344 87 350 80 359 80 H369 V50 C369 41 376 34 385 34Z"/>
    <circle cx="508" cy="42" r="23"/>
    <rect x="488" y="80" width="40" height="158" rx="16"/>
  </g>
</svg>
